<svg width="133" height="147" viewBox="0 0 133 147" fill="none" xmlns="http://www.w3.org/2000/svg">
<g id="DERATIZICIYa.svg">
<path id="Vector" d="M65.6671 15.9277C51.7627 20.6376 30.0314 31.9091 14.9473 49.9391C15.1652 89.6375 31.8653 112.016 67.7123 129.575C105.017 107.804 115.889 90.2886 118.023 49.9391C100.11 29.6906 88.5099 22.6203 65.6671 15.9277Z" fill="url(#paint0_linear_1975_1433)"/>
<path id="Vector_2" d="M15.1896 48.3592L14.501 49.2135L14.5067 50.3107C14.6123 70.2768 18.7188 86.1823 27.366 99.36C35.998 112.515 48.9614 122.656 66.2521 131.445L67.7803 132.222L69.2466 131.334C87.1056 120.518 99.028 110.535 106.664 97.954C114.306 85.3612 117.436 70.5228 118.459 50.4513L118.522 49.2269L117.726 48.294C109.138 38.2206 101.926 31.2601 94.0081 25.982C86.0767 20.6951 77.5932 17.2008 66.6059 13.8602L65.6394 13.5664L64.6865 13.9014C51.1257 18.668 29.9593 30.0392 15.1896 48.3592Z" stroke="url(#paint1_linear_1975_1433)" stroke-width="5.83358"/>
<path id="Vector_3" d="M7.02894 45.1174L5.68555 46.7253L5.69704 48.8205C5.81797 70.8793 10.5276 88.6757 20.6001 103.487C30.6321 118.239 45.6109 129.479 65.2746 139.123L68.0329 140.476L70.6855 138.926C90.9028 127.111 104.711 116.037 113.61 101.887C122.536 87.6955 126.104 71.0837 127.266 49.0911L127.389 46.7525L125.838 44.9975C116.095 33.9692 107.812 26.235 98.652 20.3425C89.4712 14.4378 79.697 10.5694 67.2233 6.90997L65.4862 6.40039L63.7719 6.98183C48.2566 12.2441 24.0153 24.7872 7.02894 45.1174Z" stroke="url(#paint2_radial_1975_1433)" stroke-width="10.8338"/>
<path id="Vector_4" fill-rule="evenodd" clip-rule="evenodd" d="M83.8601 96.2433C79.1431 100.565 73.0517 103.146 66.485 103.146C51.8731 103.146 39.6148 90.3662 39.6148 74.0732C39.6148 66.7164 42.1141 60.0758 46.201 55.0045L83.8601 96.2433ZM86.3456 93.6549L48.6293 52.3536C53.4096 47.7618 59.693 45.0005 66.485 45.0005C81.0968 45.0005 93.3552 57.7805 93.3552 74.0732C93.3552 81.6808 90.6822 88.5223 86.3456 93.6549ZM96.8791 74.0732C96.8791 92.0762 83.2712 106.67 66.485 106.67C49.6988 106.67 36.0908 92.0762 36.0908 74.0732C36.0908 56.0706 49.6988 41.4766 66.485 41.4766C83.2712 41.4766 96.8791 56.0706 96.8791 74.0732Z" fill="white"/>
<path id="Vector_5" d="M81.6569 89.8501H64.7988C64.4548 89.8501 64.125 89.7136 63.8818 89.4704C63.6386 89.2273 63.502 88.8978 63.502 88.5542C63.502 88.2097 63.6386 87.88 63.8818 87.6368C64.125 87.3936 64.4548 87.257 64.7988 87.257H81.6569C84.9533 87.257 86.844 85.4843 86.844 82.3941C86.844 80.4009 84.7134 78.1796 81.6569 78.1796H72.5794C72.2355 78.1796 71.9056 78.0429 71.6625 77.7997C71.4192 77.5565 71.2826 77.2267 71.2826 76.8828C71.2826 76.5388 71.4192 76.209 71.6625 75.9658C71.9056 75.7226 72.2355 75.5859 72.5794 75.5859H81.6569C86.3111 75.5859 89.4372 79.1067 89.4372 82.3941C89.4372 86.9238 86.3836 89.8501 81.6569 89.8501Z" fill="white"/>
<path id="Vector_6" d="M58.3154 77.8123C58.3154 74.1164 62.2057 68.6895 58.3154 68.6895C53.1283 68.6895 45.1699 77.204 45.1699 79.6368C45.1699 82.0696 53.5225 82.0696 57.217 82.0696C60.9115 82.0696 58.3154 81.5068 58.3154 77.8123Z" fill="white"/>
<path id="Vector_7" d="M85.5479 74.1628C85.5479 63.8236 77.0489 61.5167 70.7892 62.768C58.6254 65.2008 56.3535 71.1219 56.3535 75.9875C56.3535 82.3702 68.2177 82.0694 74.6005 82.0694C80.9833 82.0694 85.5479 80.5469 85.5479 74.1628Z" fill="white"/>
<path id="Vector_8" d="M77.6554 75.8625L55.4727 78.294L58.1156 82.0029H74.4139L77.6554 75.8625ZM67.1748 68.9209C67.1748 65.4416 64.5852 62.6211 61.3938 62.6211C58.1998 62.6224 55.6101 65.4416 55.6101 68.9209C55.6101 72.4001 58.1998 75.2193 61.3938 75.2193C64.5852 75.2193 67.1748 72.4001 67.1748 68.9209Z" fill="white"/>
<path id="Vector_9" d="M65.1641 69.6685C65.1641 69.6685 63.5861 69.6685 61.6402 69.6685C59.5258 69.6685 58.1162 69.6685 58.1162 69.6685C58.1162 67.7226 59.6928 66.1445 61.6402 66.1445C63.5861 66.1435 65.1641 67.7215 65.1641 69.6685Z" fill="#FB9125"/>
<path id="Vector_10" d="M53.7762 76.8825C54.8505 76.8825 55.7214 76.0116 55.7214 74.9373C55.7214 73.863 54.8505 72.9922 53.7762 72.9922C52.7019 72.9922 51.8311 73.863 51.8311 74.9373C51.8311 76.0116 52.7019 76.8825 53.7762 76.8825Z" fill="#FC8E26"/>
</g>
<defs>
<linearGradient id="paint0_linear_1975_1433" x1="66.4852" y1="15.9277" x2="66.4852" y2="129.575" gradientUnits="userSpaceOnUse">
<stop stop-color="#FDB83B"/>
<stop offset="1" stop-color="#FC8E26"/>
</linearGradient>
<linearGradient id="paint1_linear_1975_1433" x1="101.725" y1="110.958" x2="39.0674" y2="19.4776" gradientUnits="userSpaceOnUse">
<stop stop-color="#F6B54E"/>
<stop offset="1" stop-color="#FB9125"/>
</linearGradient>
<radialGradient id="paint2_radial_1975_1433" cx="0" cy="0" r="1" gradientUnits="userSpaceOnUse" gradientTransform="translate(29.0432 27.3817) rotate(72.2708) scale(124.401 112.682)">
<stop stop-color="#E5DDF3"/>
<stop offset="1" stop-color="#CBBFDF"/>
</radialGradient>
</defs>
</svg>
