<svg width="135" height="148" viewBox="0 0 135 148" fill="none" xmlns="http://www.w3.org/2000/svg">
<g id="DEZINFEKCIYa.svg">
<path id="Vector" d="M66.6425 15.959C52.6096 20.7124 30.6776 32.088 15.4541 50.2845C15.6741 90.3497 32.5284 112.935 68.7066 130.657C106.356 108.684 117.329 91.0068 119.482 50.2845C101.403 29.849 89.6963 22.7133 66.6425 15.959Z" fill="url(#paint0_linear_1975_1465)"/>
<path id="Vector_2" d="M15.6989 48.6903L15.0039 49.5525L15.0097 50.6599C15.1163 70.8104 19.2607 86.8629 27.9878 100.162C36.6995 113.439 49.7827 123.674 67.2331 132.544L68.7754 133.328L70.2552 132.431C88.2793 121.516 100.312 111.441 108.018 98.7433C115.731 86.0342 118.89 71.0588 119.922 50.8018L119.986 49.5661L119.183 48.6246C110.515 38.4581 103.237 31.4333 95.2455 26.1065C87.2409 20.7707 78.6789 17.2441 67.5902 13.8727L66.6148 13.5762L65.653 13.9142C51.9669 18.7249 30.605 30.2012 15.6989 48.6903Z" stroke="url(#paint1_linear_1975_1465)" stroke-width="5.88747"/>
<path id="Vector_3" d="M7.46225 45.4184L6.10645 47.0412L6.11804 49.1557C6.24009 71.4183 10.9932 89.3791 21.1588 104.327C31.2835 119.216 46.4006 130.559 66.246 140.292L69.0297 141.658L71.7068 140.093C92.1109 128.169 106.046 116.993 115.028 102.712C124.036 88.3898 127.637 71.6246 128.81 49.4288L128.934 47.0686L127.369 45.2974C117.536 34.1672 109.177 26.3616 99.9317 20.4147C90.6661 14.4554 80.8016 10.5512 68.2126 6.85804L66.4595 6.34375L64.7294 6.93056C49.0708 12.2415 24.6055 24.9004 7.46225 45.4184Z" stroke="url(#paint2_radial_1975_1465)" stroke-width="10.9339"/>
<path id="Vector_4" fill-rule="evenodd" clip-rule="evenodd" d="M62.5776 43.0797C62.5776 44.9802 63.6617 46.6275 65.2453 47.4368V49.8601C60.8552 50.305 56.8502 52.0535 53.6236 54.7123L50.9861 52.0748C51.5951 50.3535 51.211 48.3593 49.834 46.9821C47.9242 45.0724 44.8279 45.0724 42.9181 46.9821C41.0084 48.8919 41.0084 51.9882 42.9181 53.898C44.228 55.2078 46.096 55.6192 47.7565 55.1323L50.4972 57.8731C47.9234 61.0669 46.2327 65.0025 45.7962 69.3086H42.4834C41.6738 67.7254 40.0268 66.6416 38.1265 66.6416C35.4257 66.6416 33.2363 68.831 33.2363 71.5318C33.2363 74.2326 35.4257 76.422 38.1265 76.422C40.027 76.422 41.6743 75.3379 42.4837 73.7542H45.7961C46.226 77.9964 47.873 81.8788 50.3825 85.047L47.8847 87.5447C46.1928 86.9976 44.2618 87.396 42.9181 88.7396C41.0084 90.6489 41.0084 93.7458 42.9181 95.6556C44.8279 97.5655 47.9242 97.5655 49.834 95.6556C51.1778 94.3112 51.576 92.3801 51.0285 90.688L53.4826 88.234C56.7331 90.9583 60.7905 92.7517 65.2446 93.2034V96.1864C63.6614 96.9964 62.5776 98.6431 62.5776 100.543C62.5776 103.244 64.767 105.433 67.4678 105.433C70.1686 105.433 72.358 103.244 72.358 100.543C72.358 98.6431 71.2739 96.9955 69.6902 96.1864V93.2034C74.0386 92.7624 78.0092 91.0428 81.2197 88.4267L83.481 90.688C82.9335 92.3801 83.3318 94.3112 84.6756 95.6556C86.5854 97.5655 89.6818 97.5655 91.5916 95.6556C93.5014 93.7458 93.5014 90.6489 91.5916 88.7396C90.2481 87.396 88.3167 86.9976 86.6248 87.5447L84.3632 85.2831C86.9794 82.0727 88.6993 78.1023 89.1394 73.7542H92.1224C92.9315 75.3379 94.5791 76.422 96.4791 76.422C99.1803 76.422 101.369 74.2326 101.369 71.5318C101.369 68.831 99.1803 66.6416 96.4791 66.6416C94.5791 66.6416 92.9324 67.7254 92.1224 69.3086H89.1394C88.6939 64.9174 86.9448 60.9115 84.2847 57.6845L86.8368 55.1323C88.4974 55.6192 90.3655 55.2078 91.6752 53.898C93.585 51.9882 93.585 48.8919 91.6752 46.9821C89.7653 45.0724 86.6691 45.0724 84.7594 46.9821C83.3823 48.3593 82.9982 50.3535 83.6072 52.0748L81.1234 54.5587C77.93 51.9862 73.9957 50.2965 69.6909 49.8602V47.4365C71.2741 46.6269 72.358 44.9799 72.358 43.0797C72.358 40.3788 70.1686 38.1895 67.4678 38.1895C64.767 38.1895 62.5776 40.3788 62.5776 43.0797ZM65.2453 53.4388V56.4165C66.9811 57.6911 67.9553 57.8181 69.6909 56.4165V53.4389C77.9802 54.4469 84.5526 61.0193 85.5606 69.3086H83.1425C81.7409 71.0443 81.868 72.0185 83.1425 73.7542H85.5607C85.145 77.1747 83.7818 80.3028 81.7414 82.8683C80.6299 83.9434 79.9556 84.6304 78.8103 85.8007C76.2436 87.8436 73.1133 89.2085 69.6902 89.6246V87.2065C67.9545 85.932 66.9803 85.805 65.2446 87.2065V89.6246C56.9551 88.6166 50.3825 82.0439 49.3748 73.7542H51.4634C52.7379 72.0185 52.865 71.0443 51.4634 69.3086H49.3749C50.3829 61.0191 56.9557 54.4465 65.2453 53.4388ZM56.3537 67.0861C56.3537 69.2959 58.145 71.0872 60.3547 71.0872C62.5645 71.0872 64.3558 69.2959 64.3558 67.0861C64.3558 64.8764 62.5645 63.0851 60.3547 63.0851C58.145 63.0851 56.3537 64.8764 56.3537 67.0861ZM69.246 83.535C66.5452 83.535 64.3558 81.3456 64.3558 78.6448C64.3558 75.944 66.5452 73.7546 69.246 73.7546C71.9468 73.7546 74.1362 75.944 74.1362 78.6448C74.1362 81.3456 71.9468 83.535 69.246 83.535ZM73.2471 64.8633C73.2471 66.8275 74.8394 68.4198 76.8036 68.4198C78.7678 68.4198 80.3601 66.8275 80.3601 64.8633C80.3601 62.8991 78.7678 61.3068 76.8036 61.3068C74.8394 61.3068 73.2471 62.8991 73.2471 64.8633Z" fill="white"/>
</g>
<defs>
<linearGradient id="paint0_linear_1975_1465" x1="67.4681" y1="15.959" x2="67.4681" y2="130.657" gradientUnits="userSpaceOnUse">
<stop stop-color="#FDB83B"/>
<stop offset="1" stop-color="#FC8E26"/>
</linearGradient>
<linearGradient id="paint1_linear_1975_1465" x1="103.033" y1="111.868" x2="39.7972" y2="19.542" gradientUnits="userSpaceOnUse">
<stop stop-color="#F6B54E"/>
<stop offset="1" stop-color="#FB9125"/>
</linearGradient>
<radialGradient id="paint2_radial_1975_1465" cx="0" cy="0" r="1" gradientUnits="userSpaceOnUse" gradientTransform="translate(29.6799 27.5188) rotate(72.2708) scale(125.55 113.723)">
<stop stop-color="#E5DDF3"/>
<stop offset="1" stop-color="#CBBFDF"/>
</radialGradient>
</defs>
</svg>
