<svg width="134" height="148" viewBox="0 0 134 148" fill="none" xmlns="http://www.w3.org/2000/svg">
<g id="Group 339">
<path id="Vector" d="M65.9583 15.9551C52.0108 20.6796 30.212 31.986 15.0811 50.072C15.2997 89.8937 32.0516 112.342 68.0099 129.956C105.43 108.116 116.336 90.5467 118.477 50.072C100.508 29.7607 88.8721 22.6684 65.9583 15.9551Z" fill="url(#paint0_linear_1975_2037)"/>
<path id="Vector_2" d="M15.3236 48.4847L14.6328 49.3417L14.6386 50.4424C14.7445 70.4704 18.8637 86.4253 27.5378 99.6439C36.1966 112.84 49.2002 123.012 66.5446 131.828L68.0775 132.608L69.5484 131.717C87.4629 120.867 99.4222 110.854 107.081 98.2335C114.748 85.6016 117.888 70.7172 118.914 50.5834L118.976 49.3552L118.178 48.4194C109.564 38.3147 102.33 31.3326 94.3868 26.0381C86.4308 20.7348 77.9208 17.2296 66.8995 13.8787L65.93 13.584L64.9741 13.92C51.3712 18.7015 30.1391 30.108 15.3236 48.4847Z" stroke="url(#paint1_linear_1975_2037)" stroke-width="5.85169"/>
<path id="Vector_3" d="M7.1376 45.2317L5.79004 46.8446L5.80156 48.9463C5.92287 71.0736 10.6471 88.9252 20.7509 103.782C30.8141 118.58 45.8393 129.855 65.5641 139.529L68.3309 140.886L70.9917 139.331C91.2718 127.479 105.122 116.371 114.05 102.178C123.003 87.942 126.582 71.2786 127.748 49.2178L127.871 46.8719L126.316 45.1114C116.542 34.0489 108.234 26.2907 99.045 20.38C89.8357 14.4569 80.0313 10.5765 67.5188 6.90569L65.7763 6.39453L64.0567 6.97777C48.4932 12.2564 24.1767 24.8384 7.1376 45.2317Z" stroke="url(#paint2_radial_1975_2037)" stroke-width="10.8674"/>
<path id="Vector_4" fill-rule="evenodd" clip-rule="evenodd" d="M61.0341 52.1875L57.4992 53.9549L61.3191 59.4726C59.5218 61.6607 58.383 64.9095 58.383 68.5364C58.383 68.756 58.3871 68.9743 58.3954 69.191C57.5294 69.8621 56.7461 70.6346 56.0633 71.4909L53.8539 69.7581L51.4236 66.3271L47.7783 69.1862L54.1463 74.7186C53.8479 75.4279 53.6077 76.1676 53.4313 76.9318H46.8945V81.3504H53.1439C53.2068 82.0047 53.3156 82.6456 53.4672 83.2698L47.7783 88.2123L51.4236 91.0714L53.8539 87.6404L54.8877 86.8296C57.2498 90.9486 61.69 93.7226 66.7783 93.7226C73.8962 93.7226 79.746 88.2935 80.4128 81.3504H86.6621V76.9318H80.1254C79.949 76.1676 79.7087 75.4279 79.4104 74.7186L85.7784 69.1862L82.133 66.3271L79.7028 69.7581L77.4934 71.4909C76.8106 70.6346 76.0272 69.8621 75.1613 69.191C75.1696 68.9743 75.1737 68.756 75.1737 68.5364C75.1737 64.9715 74.0735 61.7718 72.3292 59.5858L75.6156 54.8387L72.0807 53.0712L68.8801 56.983C68.2084 56.737 67.5041 56.6061 66.7783 56.6061C66.1311 56.6061 65.5009 56.7102 64.8957 56.9072L61.0341 52.1875Z" fill="white"/>
<path id="Vector_5" fill-rule="evenodd" clip-rule="evenodd" d="M84.2076 96.5188C79.476 100.853 73.3656 103.443 66.7785 103.443C52.1213 103.443 39.8249 90.6234 39.8249 74.2798C39.8249 66.9002 42.3321 60.239 46.4316 55.152L84.2076 96.5188ZM86.7008 93.9224L48.8675 52.4929C53.6626 47.8868 59.9655 45.1169 66.7785 45.1169C81.4357 45.1169 93.7321 57.9366 93.7321 74.2798C93.7321 81.9111 91.0509 88.7738 86.7008 93.9224ZM97.267 74.2798C97.267 92.3388 83.6169 106.978 66.7785 106.978C49.9402 106.978 36.29 92.3388 36.29 74.2798C36.29 56.2214 49.9402 41.582 66.7785 41.582C83.6169 41.582 97.267 56.2214 97.267 74.2798Z" fill="white"/>
</g>
<defs>
<linearGradient id="paint0_linear_1975_2037" x1="66.7789" y1="15.9551" x2="66.7789" y2="129.956" gradientUnits="userSpaceOnUse">
<stop stop-color="#FDB83B"/>
<stop offset="1" stop-color="#FC8E26"/>
</linearGradient>
<linearGradient id="paint1_linear_1975_2037" x1="102.127" y1="111.278" x2="39.2755" y2="19.5135" gradientUnits="userSpaceOnUse">
<stop stop-color="#F6B54E"/>
<stop offset="1" stop-color="#FB9125"/>
</linearGradient>
<radialGradient id="paint2_radial_1975_2037" cx="0" cy="0" r="1" gradientUnits="userSpaceOnUse" gradientTransform="translate(29.2202 27.4409) rotate(72.2708) scale(124.787 113.032)">
<stop stop-color="#E5DDF3"/>
<stop offset="1" stop-color="#CBBFDF"/>
</radialGradient>
</defs>
</svg>
