<svg width="454" height="344" viewBox="0 0 454 344" fill="none" xmlns="http://www.w3.org/2000/svg">
<path d="M155.157 96.3105L182.249 373.97L303.758 418.913L304.456 140.713L155.157 96.3105Z" fill="#F0F0F0"/>
<path d="M304.457 140.714L146.908 115.199L139.628 64.1709L304.457 89.6851V140.714Z" fill="#F0F0F0"/>
<path d="M439.263 96.3105L413.478 373.97L303.758 418.913L304.457 140.713L439.263 96.3105Z" fill="white"/>
<path d="M304.456 140.714L446.7 115.199L453.981 64.1709L304.456 89.6851V140.714Z" fill="white"/>
<path d="M139.628 64.1722L291.294 40.4385L453.981 64.1722L304.457 89.6865L139.628 64.1722Z" fill="white"/>
<path d="M361.639 79.9533L346.876 401.271L374.306 390.024L401.556 73.1465L361.639 79.9533Z" fill="#FF8C00"/>
<path d="M236.884 78.1502L251.737 401.271L224.307 390.024L197.058 73.1465L236.884 78.1502Z" fill="#EC8910"/>
<path d="M197.058 73.1438L300.332 58.4258L401.555 73.1438L361.638 79.9507L297.853 65.5707L239.882 79.6802L197.058 73.1438Z" fill="#FF8C00"/>
<path d="M297.852 65.5727C196.764 79.1864 185.382 34.4011 185.382 34.4011L204.45 15.333C204.45 15.333 211.347 66.0911 291.812 57.4136L296.252 56.0837L300.286 58.4052L297.807 65.5502L297.852 65.5727Z" fill="#FF8C00"/>
<path opacity="0.1" d="M297.852 65.5727C196.764 79.1864 185.382 34.4011 185.382 34.4011L204.45 15.333C204.45 15.333 211.347 66.0911 291.812 57.4136L296.252 56.0837L300.286 58.4052L297.807 65.5502L297.852 65.5727Z" fill="black"/>
<path d="M305.56 61.6497C294.02 42.5591 280.519 23.9193 261.744 11.8608C242.969 -0.197602 217.928 -4.54766 198.184 5.86541C195.908 15.6474 190.859 25.9929 185.382 34.4225C205.757 30.9289 226.764 29.216 247.049 33.1829C267.334 37.1498 287.056 47.9685 297.83 65.5941C300.286 64.7827 303.081 62.4837 305.538 61.6723L305.56 61.6497Z" fill="#FF8C00"/>
<path d="M303.486 65.5727C404.574 79.1864 415.956 34.4011 415.956 34.4011L396.888 15.333C396.888 15.333 389.991 66.0911 309.526 57.4136L305.086 56.0837L301.052 58.4052L303.531 65.5502L303.486 65.5727Z" fill="#FF8C00"/>
<path opacity="0.1" d="M303.486 65.5727C404.574 79.1864 415.956 34.4011 415.956 34.4011L396.888 15.333C396.888 15.333 389.991 66.0911 309.526 57.4136L305.086 56.0837L301.052 58.4052L303.531 65.5502L303.486 65.5727Z" fill="black"/>
<path d="M295.778 61.6497C307.318 42.5591 320.819 23.9193 339.594 11.8608C358.369 -0.197602 383.41 -4.54766 403.155 5.86541C405.431 15.6474 410.48 25.9929 415.957 34.4225C395.582 30.9289 374.575 29.216 354.29 33.1829C334.005 37.1498 314.283 47.9685 303.509 65.5941C301.052 64.7827 298.258 62.4837 295.801 61.6723L295.778 61.6497Z" fill="#FF8C00"/>
<path d="M300.151 77.5638C310.445 77.5638 318.79 69.2185 318.79 58.924C318.79 48.6295 310.445 40.2842 300.151 40.2842C289.856 40.2842 281.511 48.6295 281.511 58.924C281.511 69.2185 289.856 77.5638 300.151 77.5638Z" fill="#FF8C00"/>
<path d="M289.535 54.6396C286.38 61.3788 279.55 65.7289 272.496 68.1406C265.441 70.5522 257.958 71.3637 250.745 73.1894C227.35 79.0946 207.087 96.3145 197.463 118.448C205.622 113.219 213.736 110.83 222.526 106.773C222.459 113.805 221.805 121.333 221.76 128.365C224.78 120.476 229.559 113.241 233.931 106.006C238.304 98.7713 244.096 92.1898 251.534 88.1553C260.122 83.4897 270.174 82.5431 279.573 79.9285C288.972 77.314 298.731 72.0399 301.954 62.8214C298.01 58.4938 294.99 56.7583 289.513 54.6396H289.535Z" fill="#FF8C00"/>
<path d="M295.238 64.3544C302.316 70.1019 311.692 72.2656 320.798 72.8066C329.903 73.3475 339.054 72.446 348.16 72.8968C371.082 74.0012 393.464 83.9635 409.647 100.237C409.76 95.9543 409.85 92.348 408.745 88.2233C413.839 88.9446 420.24 89.9589 425.064 91.7846C408.655 76.9087 387.333 67.5324 365.222 66.4505C354.922 65.9321 344.599 67.0817 334.321 66.4055C324.043 65.7293 313.405 62.9796 305.877 55.9248C301.549 57.6378 298.642 61.1764 295.261 64.3544H295.238Z" fill="#FF8C00"/>
<path opacity="0.2" d="M304.456 139.817L437.369 116.895L435.228 139.749L304.456 139.817Z" fill="black"/>
<path opacity="0.2" d="M304.455 139.814L157.162 116.869L159.529 141.144L304.455 139.814Z" fill="black"/>
<path d="M12.7119 208.531L24.7027 367.68L146.684 408.002V248.38L12.7119 208.531Z" fill="#EC8910"/>
<path d="M267.652 208.531L256.811 367.68L146.685 408.002V248.38L267.652 208.531Z" fill="#FF8C00"/>
<path opacity="0.1" d="M146.684 248.38L12.7119 208.531L14.2446 229.042L147.09 282.031L265.781 236.142L266.39 226.901L146.684 248.38Z" fill="black"/>
<path d="M146.684 248.379L5.31836 225.479V179.68L146.684 202.579V248.379Z" fill="#EB8100"/>
<path d="M67.3008 381.765L90.1329 389.315V193.428L67.3008 189.709V381.765Z" fill="white"/>
<path d="M146.685 248.379L274.324 225.479V179.68L146.685 202.579V248.379Z" fill="#FF991E"/>
<path d="M5.31836 179.682L134.851 158.383L274.323 179.682L146.684 202.582L5.31836 179.682Z" fill="#FF8C00"/>
<path d="M199.223 389.383L222.055 381.021V189.664L199.223 193.766V389.383Z" fill="white"/>
<path opacity="0.1" d="M67.3008 235.508V250.203L90.1329 259.309V239.204L67.3008 235.508Z" fill="black"/>
<path opacity="0.1" d="M199.223 238.935V261.88L222.055 253.045V234.855L199.223 238.935Z" fill="black"/>
<path d="M222.056 189.664L146.685 176.523L139.562 180.626L199.224 193.766L222.056 189.664Z" fill="white"/>
<path d="M137.668 171.296C13.9281 187.953 0.0214844 133.16 0.0214844 133.16L23.372 109.832C23.372 109.832 31.8016 171.95 130.32 161.334L135.775 159.711L140.711 162.574L137.69 171.319L137.668 171.296Z" fill="white"/>
<path opacity="0.1" d="M137.668 171.296C13.9281 187.953 0.0214844 133.16 0.0214844 133.16L23.372 109.832C23.372 109.832 31.8016 171.95 130.32 161.334L135.775 159.711L140.711 162.574L137.69 171.319L137.668 171.296Z" fill="black"/>
<path d="M147.09 166.472C132.958 143.121 116.437 120.289 93.4697 105.526C70.5024 90.7628 39.8491 85.4661 15.6872 98.1781C12.8924 110.146 6.71666 122.813 0 133.136C24.9283 128.854 50.6454 126.758 75.4835 131.604C100.322 136.45 124.438 149.68 137.646 171.272C140.644 170.281 144.093 167.463 147.09 166.472Z" fill="white"/>
<path d="M144.543 171.296C268.283 187.953 282.189 133.16 282.189 133.16L258.839 109.832C258.839 109.832 250.409 171.95 151.891 161.334L146.436 159.711L141.5 162.574L144.52 171.319L144.543 171.296Z" fill="white"/>
<path opacity="0.1" d="M144.543 171.296C268.283 187.953 282.189 133.16 282.189 133.16L258.839 109.832C258.839 109.832 250.409 171.95 151.891 161.334L146.436 159.711L141.5 162.574L144.52 171.319L144.543 171.296Z" fill="black"/>
<path d="M135.1 166.472C149.232 143.121 165.753 120.289 188.72 105.526C211.688 90.7628 242.341 85.4661 266.503 98.1781C269.298 110.146 275.473 122.813 282.19 133.136C257.262 128.854 231.545 126.758 206.706 131.604C181.868 136.45 157.751 149.68 144.544 171.272C141.546 170.281 138.097 167.463 135.1 166.472Z" fill="white"/>
<path d="M140.486 185.965C153.096 185.965 163.319 175.743 163.319 163.133C163.319 150.523 153.096 140.301 140.486 140.301C127.877 140.301 117.654 150.523 117.654 163.133C117.654 175.743 127.877 185.965 140.486 185.965Z" fill="white"/>
<path d="M127.457 157.906C123.603 166.156 115.241 171.497 106.609 174.427C97.9762 177.357 88.8253 178.349 79.9899 180.603C51.3427 187.838 26.5497 208.912 14.7617 236.004C24.7465 229.603 34.6638 226.696 45.46 221.714C45.3924 230.302 44.581 239.543 44.5134 248.13C48.2098 238.461 54.07 229.626 59.4117 220.768C64.7535 211.91 71.8533 203.863 80.9591 198.927C91.4624 193.225 103.769 192.053 115.286 188.852C126.804 185.629 138.727 179.206 142.694 167.914C137.87 162.617 134.174 160.498 127.48 157.906H127.457Z" fill="white"/>
<path d="M134.446 169.784C143.101 176.816 154.574 179.476 165.731 180.129C176.887 180.783 188.067 179.701 199.224 180.242C227.285 181.594 254.693 193.788 274.482 213.713C274.617 208.461 274.73 204.066 273.355 198.995C279.598 199.874 287.442 201.113 293.325 203.367C273.242 185.155 247.142 173.706 220.072 172.353C207.473 171.722 194.829 173.12 182.229 172.286C169.63 171.452 156.625 168.093 147.429 159.461C142.132 161.557 138.594 165.885 134.424 169.784H134.446Z" fill="white"/>
</svg>
