<svg width="135" height="148" viewBox="0 0 135 148" fill="none" xmlns="http://www.w3.org/2000/svg">
<g id="OBRABOTKA.svg">
<path id="Vector" d="M66.7265 15.959C52.6936 20.7124 30.7616 32.088 15.5381 50.2845C15.7581 90.3497 32.6124 112.935 68.7906 130.657C106.44 108.684 117.413 91.0068 119.566 50.2845C101.487 29.849 89.7803 22.7133 66.7265 15.959Z" fill="url(#paint0_linear_1975_1529)"/>
<path id="Vector_2" d="M15.7819 48.6864L15.0869 49.5486L15.0927 50.656C15.1993 70.8065 19.3437 86.859 28.0708 100.158C36.7825 113.435 49.8657 123.67 67.3161 132.54L68.8584 133.324L70.3382 132.428C88.3623 121.512 100.395 111.437 108.101 98.7394C115.814 86.0303 118.973 71.0549 120.005 50.7979L120.069 49.5622L119.266 48.6206C110.598 38.4542 103.32 31.4294 95.3285 26.1026C87.3239 20.7668 78.7619 17.2402 67.6732 13.8688L66.6978 13.5723L65.736 13.9103C52.0499 18.721 30.688 30.1973 15.7819 48.6864Z" stroke="url(#paint1_linear_1975_1529)" stroke-width="5.88747"/>
<path id="Vector_3" d="M7.54526 45.4184L6.18945 47.0412L6.20105 49.1557C6.3231 71.4183 11.0762 89.3791 21.2418 104.327C31.3665 119.216 46.4836 130.559 66.329 140.292L69.1127 141.658L71.7898 140.093C92.1939 128.169 106.129 116.993 115.111 102.712C124.119 88.3898 127.72 71.6246 128.893 49.4288L129.017 47.0686L127.452 45.2974C117.619 34.1672 109.26 26.3616 100.015 20.4147C90.7491 14.4554 80.8846 10.5512 68.2956 6.85804L66.5425 6.34375L64.8124 6.93056C49.1538 12.2415 24.6885 24.9004 7.54526 45.4184Z" stroke="url(#paint2_radial_1975_1529)" stroke-width="10.9339"/>
<path id="Vector_4" d="M96.4486 74.6429C96.4486 91.9489 83.396 105.762 67.5519 105.762C51.7079 105.762 38.6553 91.9489 38.6553 74.6429C38.6553 57.3368 51.7079 43.5234 67.5519 43.5234C83.396 43.5234 96.4486 57.3368 96.4486 74.6429Z" stroke="white" stroke-width="3.36427"/>
<path id="Vector_5" d="M88.0329 94.8832L48.2891 51.3613L45.6205 53.7982L85.3644 97.3201L88.0329 94.8832Z" fill="white"/>
<path id="Vector_6" fill-rule="evenodd" clip-rule="evenodd" d="M67.107 54.4999C65.7937 54.2222 64.4396 53.2555 64.4396 51.5254H66.2179C66.2179 52.1835 66.8369 52.76 67.8142 52.8044C68.2644 52.8249 68.6546 52.708 68.9112 52.5098C69.1398 52.3331 69.3298 52.0435 69.3298 51.5254H71.1081C71.1081 52.5633 70.6868 53.3851 69.9986 53.9169C69.6619 54.177 69.2806 54.3536 68.8853 54.4596V59.5275L69.7492 63.847C71.1294 62.5829 72.1237 61.3585 72.8917 59.9225C73.9087 58.0209 74.5632 55.6849 75.1208 52.2712L76.8758 52.5578C76.3067 56.0423 75.6133 58.6041 74.4598 60.7611C73.4239 62.698 72.0444 64.258 70.1518 65.8604L70.4179 67.1906C73.4562 66.4873 86.256 66.32 87.1455 67.5227C88.1622 68.8973 87.0167 70.4059 86.6761 70.0137C80.986 72.938 77.1686 72.23 70.5645 70.2515L70.5006 71.4348L75.71 76.2101L75.907 76.3907L75.9717 76.6499L76.8608 80.2064L76.8662 80.2274L76.8704 80.2487C77.2602 82.2092 77.4133 82.8333 77.637 83.7451L77.7031 84.0149L83.7976 91.4152L82.425 92.5462L76.2011 84.9884L76.0716 84.8311L76.0235 84.6331C75.9832 84.4672 75.9457 84.3146 75.9099 84.1688L75.9096 84.1672C75.6836 83.2461 75.5247 82.5978 75.1305 80.6167L74.3114 77.3404L70.3763 73.7332L70.2163 76.693L74.0356 81.6582L74.199 81.8705L74.2178 82.1378C74.3627 84.1937 74.3586 85.4038 74.2183 87.592L74.2098 87.7229L74.164 87.8458C73.505 89.613 73.3678 90.4612 73.3347 91.8118C74.0895 93.6185 74.2578 93.8399 74.4567 94.0764L73.0942 95.2198C72.689 94.7361 72.4257 94.2605 71.6207 92.3222L71.5495 92.1506L71.5528 91.9647C71.5816 90.3332 71.7334 89.3 72.4518 87.3485C72.5736 85.4091 72.5795 84.2976 72.4622 82.5293L70.069 79.4181L69.7744 84.8677L68.8853 89.7579H67.107L66.6625 85.7568L65.933 78.8275L63.0855 82.5293C62.9682 84.2976 62.9742 85.4091 63.0959 87.3485C63.8143 89.3 63.9661 90.3332 63.9949 91.9647L63.9982 92.1506L63.9271 92.3222C63.122 94.2605 62.8588 94.7361 62.4535 95.2198L61.091 94.0764C61.2899 93.8399 61.4582 93.6185 62.2131 91.8118C62.1799 90.4612 62.0427 89.613 61.3837 87.8458L61.3379 87.7229L61.3295 87.592C61.1892 85.4038 61.185 84.1937 61.3299 82.1378L61.3488 81.8705L61.5121 81.6582L65.663 76.262L65.4161 73.9165L61.6809 77.3404L60.8618 80.6167C60.4676 82.5978 60.3087 83.2461 60.0827 84.1672C60.0469 84.3135 60.0093 84.4667 59.9688 84.6331L59.9207 84.8311L59.7912 84.9884L53.5673 92.5462L52.1946 91.4152L58.2892 84.0149L58.3553 83.7452C58.5789 82.8333 58.7321 82.2092 59.1219 80.2487L59.1262 80.2274L59.1314 80.2064L60.0206 76.6499L60.0853 76.3907L60.2823 76.2101L65.1845 71.7164L65.0352 70.2976C58.5 72.5318 54.8418 73.4031 49.3245 70.1971C49.0019 70.617 47.9171 69.0016 48.8799 67.5297C49.7799 66.154 63.5523 66.4523 65.1751 67.3361L65.5348 65.4477C63.6022 63.7812 62.2332 62.2098 61.2314 60.2118C60.2198 58.1942 59.613 55.8007 59.1151 52.5491L60.8729 52.2799C61.3609 55.4666 61.9335 57.6444 62.8211 59.4148C63.5561 60.8808 64.5279 62.1084 65.9231 63.4092L66.6625 59.5275H67.107V54.4999Z" fill="white"/>
<path id="Vector_7" fill-rule="evenodd" clip-rule="evenodd" d="M50.0152 97.0188C54.7758 101.38 60.9235 103.985 67.5509 103.985C82.2977 103.985 94.6693 91.0874 94.6693 74.6438C94.6693 67.2191 92.1469 60.5171 88.0223 55.399L50.0152 97.0188ZM47.5068 94.4065L85.5715 52.7236C80.7471 48.0894 74.4056 45.3026 67.5509 45.3026C52.8041 45.3026 40.4325 58.2007 40.4325 74.6438C40.4325 82.3217 43.1298 89.2264 47.5068 94.4065ZM36.876 74.6438C36.876 92.8132 50.6096 107.542 67.5509 107.542C84.4922 107.542 98.2258 92.8132 98.2258 74.6438C98.2258 56.475 84.4922 41.7461 67.5509 41.7461C50.6096 41.7461 36.876 56.475 36.876 74.6438Z" fill="white"/>
</g>
<defs>
<linearGradient id="paint0_linear_1975_1529" x1="67.5521" y1="15.959" x2="67.5521" y2="130.657" gradientUnits="userSpaceOnUse">
<stop stop-color="#FDB83B"/>
<stop offset="1" stop-color="#FC8E26"/>
</linearGradient>
<linearGradient id="paint1_linear_1975_1529" x1="103.116" y1="111.864" x2="39.8803" y2="19.538" gradientUnits="userSpaceOnUse">
<stop stop-color="#F6B54E"/>
<stop offset="1" stop-color="#FB9125"/>
</linearGradient>
<radialGradient id="paint2_radial_1975_1529" cx="0" cy="0" r="1" gradientUnits="userSpaceOnUse" gradientTransform="translate(29.7629 27.5188) rotate(72.2708) scale(125.55 113.723)">
<stop stop-color="#E5DDF3"/>
<stop offset="1" stop-color="#CBBFDF"/>
</radialGradient>
</defs>
</svg>
