<svg width="87" height="56" viewBox="0 0 87 56" fill="none" xmlns="http://www.w3.org/2000/svg">
<path d="M6.03613 45.8906V53H4.69336V45.8906H6.03613ZM10.2695 45.8906L7.46191 50.002H5.69922L5.52344 48.8203H6.73438L8.63379 45.8906H10.2695ZM8.8877 53L6.74414 49.7871L7.64746 48.7959L10.4941 53H8.8877ZM12.3887 52.4141L13.8047 47.7168H15.1865L13.0674 53.8008C13.0186 53.931 12.9551 54.0726 12.877 54.2256C12.8021 54.3786 12.7012 54.5234 12.5742 54.6602C12.4473 54.8001 12.2878 54.9141 12.0957 55.002C11.9069 55.0898 11.6774 55.1338 11.4072 55.1338C11.29 55.1338 11.1859 55.1257 11.0947 55.1094C11.0036 55.0931 10.9076 55.0719 10.8066 55.0459V54.0791C10.8392 54.0824 10.8766 54.084 10.9189 54.084C10.9645 54.0872 11.0036 54.0889 11.0361 54.0889C11.2249 54.0889 11.3812 54.0661 11.5049 54.0205C11.6286 53.9782 11.7279 53.9082 11.8027 53.8105C11.8809 53.7161 11.946 53.5924 11.998 53.4395L12.3887 52.4141ZM11.6904 47.7168L12.8867 51.6084L13.0967 52.9707L12.208 53.1318L10.2988 47.7168H11.6904ZM19.083 45.3975H20.1279C20.1279 45.6742 20.0921 45.9069 20.0205 46.0957C19.9489 46.2812 19.8382 46.4375 19.6885 46.5645C19.5387 46.6882 19.3467 46.7907 19.1123 46.8721C18.8779 46.9535 18.598 47.0251 18.2725 47.0869C17.999 47.1423 17.7581 47.2334 17.5498 47.3604C17.3415 47.4873 17.1673 47.6615 17.0273 47.8828C16.8906 48.1042 16.7913 48.3857 16.7295 48.7275C16.6676 49.0693 16.6481 49.4811 16.6709 49.9629V50.2461L15.6602 50.3633V50.0801C15.6602 49.4518 15.7171 48.9049 15.8311 48.4395C15.945 47.9707 16.1061 47.5768 16.3145 47.2578C16.5228 46.9355 16.7718 46.68 17.0615 46.4912C17.3545 46.2992 17.6816 46.1641 18.043 46.0859C18.2839 46.0371 18.4808 45.9867 18.6338 45.9346C18.79 45.8825 18.904 45.8158 18.9756 45.7344C19.0472 45.6497 19.083 45.5374 19.083 45.3975ZM18.3604 48.0146C18.7152 48.0146 19.0293 48.0765 19.3027 48.2002C19.5794 48.3206 19.8122 48.4915 20.001 48.7129C20.1898 48.931 20.333 49.1898 20.4307 49.4893C20.5316 49.7855 20.582 50.1094 20.582 50.4609V50.5635C20.582 50.9281 20.5267 51.265 20.416 51.5742C20.3086 51.8835 20.1507 52.152 19.9424 52.3799C19.734 52.6077 19.4769 52.7852 19.1709 52.9121C18.8649 53.0391 18.515 53.1025 18.1211 53.1025C17.7305 53.1025 17.3822 53.0358 17.0762 52.9023C16.7702 52.7656 16.5114 52.5768 16.2998 52.3359C16.0882 52.0951 15.9287 51.8118 15.8213 51.4863C15.7139 51.1576 15.6602 50.7995 15.6602 50.4121V50.3096C15.6569 50.2445 15.6781 50.1826 15.7236 50.124C15.7692 50.0654 15.8229 50.0003 15.8848 49.9287C15.9499 49.8571 16.0085 49.7708 16.0605 49.6699C16.2396 49.3249 16.4414 49.0286 16.666 48.7812C16.8939 48.5339 17.1478 48.3451 17.4277 48.2148C17.7077 48.0814 18.0186 48.0146 18.3604 48.0146ZM18.1113 49.0303C17.8346 49.0303 17.61 49.097 17.4375 49.2305C17.2682 49.3607 17.1445 49.5348 17.0664 49.7529C16.9883 49.9678 16.9492 50.2038 16.9492 50.4609V50.5635C16.9492 50.7718 16.9704 50.9688 17.0127 51.1543C17.0583 51.3366 17.1266 51.4977 17.2178 51.6377C17.3089 51.7777 17.4294 51.8883 17.5791 51.9697C17.7288 52.0479 17.9095 52.0869 18.1211 52.0869C18.3327 52.0869 18.5117 52.0479 18.6582 51.9697C18.8079 51.8883 18.9284 51.7777 19.0195 51.6377C19.1107 51.4977 19.1774 51.3366 19.2197 51.1543C19.2653 50.9688 19.2881 50.7718 19.2881 50.5635V50.4609C19.2881 50.2689 19.2653 50.0866 19.2197 49.9141C19.1774 49.7415 19.1107 49.5902 19.0195 49.46C18.9284 49.3265 18.8063 49.2223 18.6533 49.1475C18.5036 49.0693 18.3229 49.0303 18.1113 49.0303ZM24.3857 51.877V49.4404C24.3857 49.2614 24.3548 49.1068 24.293 48.9766C24.2311 48.8464 24.1367 48.7454 24.0098 48.6738C23.8828 48.6022 23.7217 48.5664 23.5264 48.5664C23.3538 48.5664 23.2025 48.5957 23.0723 48.6543C22.9453 48.7129 22.8477 48.7959 22.7793 48.9033C22.7109 49.0075 22.6768 49.1279 22.6768 49.2646H21.3828C21.3828 49.0465 21.4349 48.8398 21.5391 48.6445C21.6432 48.446 21.7913 48.2702 21.9834 48.1172C22.1787 47.9609 22.4115 47.8389 22.6816 47.751C22.9551 47.6631 23.2611 47.6191 23.5996 47.6191C24 47.6191 24.3564 47.6875 24.6689 47.8242C24.9847 47.9577 25.2321 48.1595 25.4111 48.4297C25.5934 48.6999 25.6846 49.04 25.6846 49.4502V51.7549C25.6846 52.0186 25.7008 52.2448 25.7334 52.4336C25.7692 52.6191 25.8213 52.7803 25.8896 52.917V53H24.5762C24.5143 52.8665 24.4671 52.6973 24.4346 52.4922C24.402 52.2839 24.3857 52.0788 24.3857 51.877ZM24.5664 49.7822L24.5762 50.5488H23.7607C23.5589 50.5488 23.3815 50.57 23.2285 50.6123C23.0755 50.6514 22.9502 50.71 22.8525 50.7881C22.7549 50.863 22.6816 50.9541 22.6328 51.0615C22.584 51.1657 22.5596 51.2845 22.5596 51.418C22.5596 51.5482 22.5889 51.6654 22.6475 51.7695C22.7093 51.8737 22.7972 51.9567 22.9111 52.0186C23.0283 52.0771 23.165 52.1064 23.3213 52.1064C23.5492 52.1064 23.7477 52.0609 23.917 51.9697C24.0863 51.8753 24.2181 51.7614 24.3125 51.6279C24.4069 51.4945 24.4574 51.3675 24.4639 51.2471L24.835 51.8037C24.7894 51.9372 24.721 52.0788 24.6299 52.2285C24.5387 52.3783 24.4215 52.5182 24.2783 52.6484C24.1351 52.7786 23.9626 52.8861 23.7607 52.9707C23.5589 53.0553 23.3245 53.0977 23.0576 53.0977C22.7158 53.0977 22.4098 53.0293 22.1396 52.8926C21.8695 52.7559 21.6562 52.5687 21.5 52.3311C21.3438 52.0934 21.2656 51.8232 21.2656 51.5205C21.2656 51.2406 21.3177 50.9932 21.4219 50.7783C21.526 50.5635 21.6807 50.3828 21.8857 50.2363C22.0908 50.0866 22.3447 49.9743 22.6475 49.8994C22.9535 49.8213 23.3034 49.7822 23.6973 49.7822H24.5664ZM30.4551 49.8848V50.8955H27.7451V49.8848H30.4551ZM28.1504 47.7168V53H26.8564V47.7168H28.1504ZM31.3584 47.7168V53H30.0596V47.7168H31.3584ZM33.4482 49.3428H34.9912C35.46 49.3428 35.8587 49.4209 36.1875 49.5771C36.5195 49.7301 36.7718 49.945 36.9443 50.2217C37.1201 50.4951 37.208 50.8125 37.208 51.1738C37.208 51.4342 37.1576 51.6768 37.0566 51.9014C36.959 52.1227 36.8158 52.3164 36.627 52.4824C36.4382 52.6452 36.2054 52.7721 35.9287 52.8633C35.6553 52.9544 35.3428 53 34.9912 53H32.6182V47.7168H33.9121V51.9893H34.9912C35.2158 51.9893 35.3949 51.9518 35.5283 51.877C35.665 51.7988 35.7627 51.6995 35.8213 51.5791C35.8831 51.4554 35.9141 51.3236 35.9141 51.1836C35.9141 51.0404 35.8831 50.9069 35.8213 50.7832C35.7627 50.6562 35.665 50.5537 35.5283 50.4756C35.3949 50.3975 35.2158 50.3584 34.9912 50.3584H33.4482V49.3428ZM43.8047 51.9453V53H38.624V51.9453H43.8047ZM38.9902 51.9453V54.7432H37.7158L37.6523 51.9453H38.9902ZM44.8057 51.9453L44.7031 54.748H43.458V51.9453H44.8057ZM42.9697 45.8906V46.9502H39.6201V45.8906H42.9697ZM43.9609 45.8906V53H42.623V45.8906H43.9609ZM39.4053 45.8906H40.748L40.5674 48.7812C40.5413 49.2467 40.4925 49.6618 40.4209 50.0264C40.3525 50.391 40.2679 50.7148 40.167 50.998C40.0661 51.2812 39.9538 51.5303 39.8301 51.7451C39.7096 51.9567 39.5811 52.1406 39.4443 52.2969C39.3109 52.4531 39.1725 52.5882 39.0293 52.7021C38.8893 52.8128 38.751 52.9121 38.6143 53H37.8672V51.9453H38.1895C38.2839 51.8639 38.3831 51.75 38.4873 51.6035C38.5947 51.457 38.6973 51.2633 38.7949 51.0225C38.8958 50.7816 38.9837 50.4772 39.0586 50.1094C39.1335 49.7415 39.1872 49.2988 39.2197 48.7812L39.4053 45.8906ZM47.9209 53.0977C47.5205 53.0977 47.1608 53.0326 46.8418 52.9023C46.5228 52.7721 46.251 52.5915 46.0264 52.3604C45.805 52.126 45.6341 51.8542 45.5137 51.5449C45.3965 51.2324 45.3379 50.8971 45.3379 50.5391V50.3438C45.3379 49.9368 45.3965 49.5674 45.5137 49.2354C45.6309 48.9001 45.7969 48.612 46.0117 48.3711C46.2266 48.1302 46.4837 47.9447 46.7832 47.8145C47.0827 47.6842 47.4131 47.6191 47.7744 47.6191C48.1488 47.6191 48.4792 47.6826 48.7656 47.8096C49.0521 47.9333 49.2913 48.109 49.4834 48.3369C49.6755 48.5648 49.8203 48.8382 49.918 49.1572C50.0156 49.473 50.0645 49.8229 50.0645 50.207V50.749H45.9238V49.8604H48.7949V49.7627C48.7884 49.5576 48.7493 49.3704 48.6777 49.2012C48.6061 49.0286 48.4954 48.8919 48.3457 48.791C48.196 48.6868 48.0023 48.6348 47.7646 48.6348C47.5726 48.6348 47.4049 48.6771 47.2617 48.7617C47.1217 48.8431 47.0046 48.9603 46.9102 49.1133C46.819 49.263 46.7507 49.4421 46.7051 49.6504C46.6595 49.8587 46.6367 50.0898 46.6367 50.3438V50.5391C46.6367 50.7604 46.666 50.9655 46.7246 51.1543C46.7865 51.3431 46.876 51.5075 46.9932 51.6475C47.1136 51.7842 47.2568 51.8916 47.4229 51.9697C47.5921 52.0446 47.7842 52.082 47.999 52.082C48.2692 52.082 48.5133 52.0299 48.7314 51.9258C48.9528 51.8184 49.1449 51.6605 49.3076 51.4521L49.957 52.126C49.8464 52.2887 49.6966 52.445 49.5078 52.5947C49.3223 52.7445 49.0977 52.8665 48.834 52.9609C48.5703 53.0521 48.266 53.0977 47.9209 53.0977ZM53.1943 50.4805H52.1641V49.8652H52.9502C53.1423 49.8652 53.2952 49.8392 53.4092 49.7871C53.5264 49.735 53.6094 49.6618 53.6582 49.5674C53.7103 49.473 53.7363 49.3639 53.7363 49.2402C53.7363 49.1296 53.7119 49.0254 53.6631 48.9277C53.6143 48.8268 53.5329 48.7454 53.4189 48.6836C53.305 48.6185 53.1471 48.5859 52.9453 48.5859C52.7793 48.5859 52.6312 48.612 52.501 48.6641C52.3708 48.7161 52.2682 48.7894 52.1934 48.8838C52.1185 48.9782 52.0811 49.0905 52.0811 49.2207H50.7871C50.7871 48.8887 50.8815 48.6038 51.0703 48.3662C51.2624 48.1286 51.5179 47.9463 51.8369 47.8193C52.1559 47.6891 52.5059 47.624 52.8867 47.624C53.2155 47.624 53.5117 47.6582 53.7754 47.7266C54.0391 47.7917 54.2637 47.8893 54.4492 48.0195C54.6348 48.1497 54.778 48.3109 54.8789 48.5029C54.9798 48.6917 55.0303 48.9115 55.0303 49.1621C55.0303 49.3411 54.988 49.5104 54.9033 49.6699C54.8187 49.8294 54.6966 49.971 54.5371 50.0947C54.3776 50.2152 54.1839 50.3096 53.9561 50.3779C53.7314 50.4463 53.4775 50.4805 53.1943 50.4805ZM52.1641 50.1289H53.1943C53.5101 50.1289 53.7868 50.1598 54.0244 50.2217C54.2653 50.2803 54.4671 50.3682 54.6299 50.4854C54.7926 50.6025 54.9147 50.7474 54.9961 50.9199C55.0807 51.0892 55.123 51.2845 55.123 51.5059C55.123 51.7565 55.0677 51.9811 54.957 52.1797C54.8496 52.375 54.6966 52.541 54.498 52.6777C54.2995 52.8145 54.0635 52.9186 53.79 52.9902C53.5166 53.0618 53.2155 53.0977 52.8867 53.0977C52.5319 53.0977 52.1868 53.0391 51.8516 52.9219C51.5195 52.8047 51.2445 52.624 51.0264 52.3799C50.8115 52.1357 50.7041 51.8216 50.7041 51.4375H51.998C51.998 51.5612 52.0355 51.6768 52.1104 51.7842C52.1852 51.8916 52.2926 51.9779 52.4326 52.043C52.5758 52.1048 52.7484 52.1357 52.9502 52.1357C53.1553 52.1357 53.3229 52.1032 53.4531 52.0381C53.5833 51.973 53.6777 51.8867 53.7363 51.7793C53.7982 51.6686 53.8291 51.5531 53.8291 51.4326C53.8291 51.2666 53.7965 51.1331 53.7314 51.0322C53.6696 50.9281 53.5719 50.8516 53.4385 50.8027C53.3083 50.7539 53.1455 50.7295 52.9502 50.7295H52.1641V50.1289ZM60.7578 45.8906V46.9502H57.5059V53H56.168V45.8906H60.7578ZM62.0029 48.7324V55.0312H60.709V47.7168H61.9053L62.0029 48.7324ZM65.3965 50.3047V50.4072C65.3965 50.7913 65.3509 51.1478 65.2598 51.4766C65.1719 51.8021 65.0417 52.0869 64.8691 52.3311C64.6966 52.5719 64.4818 52.7607 64.2246 52.8975C63.9707 53.0309 63.6777 53.0977 63.3457 53.0977C63.0202 53.0977 62.737 53.0358 62.4961 52.9121C62.2552 52.7852 62.0518 52.6061 61.8857 52.375C61.7197 52.1439 61.5863 51.8753 61.4854 51.5693C61.3877 51.2601 61.3145 50.9232 61.2656 50.5586V50.2314C61.3145 49.8441 61.3877 49.4925 61.4854 49.1768C61.5863 48.8577 61.7197 48.5827 61.8857 48.3516C62.0518 48.1172 62.2536 47.9365 62.4912 47.8096C62.7321 47.6826 63.0137 47.6191 63.3359 47.6191C63.6712 47.6191 63.9658 47.6826 64.2197 47.8096C64.4769 47.9365 64.6934 48.1188 64.8691 48.3564C65.0449 48.5941 65.1768 48.8773 65.2646 49.2061C65.3525 49.5348 65.3965 49.901 65.3965 50.3047ZM64.1025 50.4072V50.3047C64.1025 50.0703 64.0814 49.8538 64.0391 49.6553C63.9967 49.4535 63.9316 49.2777 63.8438 49.1279C63.7559 48.9749 63.6419 48.8561 63.502 48.7715C63.362 48.6868 63.1927 48.6445 62.9941 48.6445C62.7956 48.6445 62.6247 48.6771 62.4814 48.7422C62.3382 48.8073 62.221 48.9001 62.1299 49.0205C62.0387 49.141 61.9671 49.2842 61.915 49.4502C61.8662 49.613 61.8337 49.7936 61.8174 49.9922V50.8027C61.8467 51.0436 61.9036 51.2601 61.9883 51.4521C62.0729 51.6442 62.1966 51.7972 62.3594 51.9111C62.5254 52.0251 62.7402 52.082 63.0039 52.082C63.2025 52.082 63.3717 52.0381 63.5117 51.9502C63.6517 51.8623 63.7656 51.7419 63.8535 51.5889C63.9414 51.4326 64.0049 51.2536 64.0439 51.0518C64.083 50.8499 64.1025 50.6351 64.1025 50.4072ZM67.8281 52.4141L69.2441 47.7168H70.626L68.5068 53.8008C68.458 53.931 68.3945 54.0726 68.3164 54.2256C68.2415 54.3786 68.1406 54.5234 68.0137 54.6602C67.8867 54.8001 67.7272 54.9141 67.5352 55.002C67.3464 55.0898 67.1169 55.1338 66.8467 55.1338C66.7295 55.1338 66.6253 55.1257 66.5342 55.1094C66.443 55.0931 66.347 55.0719 66.2461 55.0459V54.0791C66.2786 54.0824 66.3161 54.084 66.3584 54.084C66.404 54.0872 66.443 54.0889 66.4756 54.0889C66.6644 54.0889 66.8206 54.0661 66.9443 54.0205C67.068 53.9782 67.1673 53.9082 67.2422 53.8105C67.3203 53.7161 67.3854 53.5924 67.4375 53.4395L67.8281 52.4141ZM67.1299 47.7168L68.3262 51.6084L68.5361 52.9707L67.6475 53.1318L65.7383 47.7168H67.1299ZM74.7959 47.7168V48.7373H72.2129V47.7168H74.7959ZM72.5547 47.7168V53H71.2607V47.7168H72.5547ZM75.7725 47.7168V53H74.4736V47.7168H75.7725ZM80.4893 47.7168V48.7373H77.9062V47.7168H80.4893ZM78.248 47.7168V53H76.9541V47.7168H78.248ZM81.4658 47.7168V53H80.167V47.7168H81.4658Z" fill="white"/>
<path d="M42.6739 1.59368C42.2309 2.47959 41.8175 3.24738 41.788 3.30644C41.7289 3.36551 41.2859 3.18832 40.7544 2.92255C40.2229 2.65677 39.7799 2.47959 39.7208 2.53865C39.5732 2.65677 40.341 5.87559 40.6067 6.28902C40.8725 6.76151 45.9222 6.70245 46.2766 6.22996C46.5719 5.87559 47.2511 3.42457 47.2511 2.7749C47.2511 2.59771 46.9263 2.62724 46.3652 2.92255C45.8927 3.15879 45.4497 3.36551 45.3611 3.36551C45.2726 3.36551 44.8001 2.59771 44.3276 1.68227L43.5007 -0.000965118L42.6739 1.59368ZM43.9732 4.45813C44.0027 5.55076 43.6484 5.90512 43.1464 5.31451C42.792 4.90109 42.9397 3.04067 43.3531 2.33194C43.5893 1.97757 43.9437 3.21785 43.9732 4.45813ZM41.6403 4.54672C41.6403 4.69438 41.5222 4.90109 41.345 4.98968C41.1974 5.07827 41.0497 5.1078 41.0497 5.01921C41.0497 4.96015 40.9611 4.66484 40.8725 4.4286C40.7249 4.07424 40.8135 3.98564 41.1678 4.1333C41.4336 4.22189 41.6403 4.4286 41.6403 4.54672ZM45.9222 4.87156C45.7155 5.46217 45.686 5.4917 45.4202 4.98968C45.184 4.63531 45.2135 4.39907 45.5088 4.22189C46.0403 3.89705 46.1585 4.07424 45.9222 4.87156Z" fill="white"/>
<path d="M19.5196 1.86027C19.3424 2.1851 19.1948 2.65759 19.1948 2.89383C19.1948 3.57303 18.7814 3.48444 18.4565 2.71665C18.2793 2.36229 17.984 2.00792 17.7478 1.94886C17.482 1.86027 17.423 1.94886 17.5706 2.1851C17.6887 2.39182 17.8364 3.10055 17.8954 3.77975C17.984 4.81331 17.8659 5.10862 16.9209 6.08312C15.8874 7.14622 15.8578 7.26434 15.7988 9.39053C15.7693 11.5758 15.4149 12.5208 14.588 12.5208C14.1156 12.5208 14.1156 12.4912 14.0565 10.4832C13.9974 7.29387 10.8081 5.84688 2.74633 5.25627C0.118122 5.07909 0 5.07909 0 5.6697C0 6.02406 0.590609 6.79185 1.38793 7.50058C2.18525 8.17978 2.51009 8.59321 2.15572 8.41603C0.826852 7.76636 1.6537 9.24288 3.18929 10.3355C3.98661 10.8966 4.10473 11.0738 3.63224 10.9556C3.24835 10.8671 2.95304 10.8671 2.95304 10.9556C2.95304 11.4281 3.72084 12.314 4.66581 12.9637C5.4336 13.4953 5.58125 13.702 5.19736 13.702C4.63628 13.702 4.63628 13.702 5.19736 14.3221C5.49266 14.6765 6.20139 15.149 6.73294 15.3852C7.79604 15.8282 8.00275 16.0939 7.08731 15.8577C5.93562 15.5624 6.52623 16.3892 7.88463 17.0094C9.00679 17.5114 9.18397 17.6591 8.74101 17.8362C8.23899 18.0134 8.26852 18.0725 8.94772 18.5154C9.39068 18.7812 9.86317 19.0175 10.0404 19.0175C10.188 19.0175 10.3357 19.1356 10.3357 19.2832C10.3357 19.6081 11.9598 20.1987 12.9048 20.1987C13.5249 20.1987 13.584 20.2873 13.4068 20.8483C13.0229 22.1772 11.1625 25.2189 10.3947 25.839C9.36115 26.6363 7.38261 26.4887 6.34905 25.5142C4.81346 24.0967 5.22689 20.4644 6.96918 20.0215C8.09134 19.7262 9.27256 20.2282 9.39068 21.0255C9.5088 21.7047 9.68599 21.7933 10.2471 21.439C10.7786 21.1141 9.39068 19.6967 8.29805 19.4604C7.20543 19.2242 5.49266 19.9329 5.02018 20.8188C4.81346 21.2027 4.69534 22.2067 4.78393 23.3289C4.87252 24.8054 5.04971 25.3665 5.61078 25.9571C7.05778 27.5222 9.80411 27.6403 11.4873 26.2524C11.9598 25.839 12.4028 25.5142 12.4914 25.5142C12.58 25.5142 12.7572 26.4001 12.8457 27.4632C13.0525 29.235 13.0229 29.4417 12.4323 29.8256C11.635 30.4162 11.635 31.0659 12.5504 32.631C12.9639 33.3397 13.2887 34.0189 13.2887 34.137C13.2887 34.2256 12.8457 34.58 12.3142 34.9048C11.2511 35.525 10.3357 37.0901 10.3357 38.2713C10.3357 39.6002 12.3733 40.6337 12.8162 39.5411C12.9343 39.1867 13.6726 39.0982 16.7438 39.0686C20.3169 39.0391 20.4646 39.0391 19.5492 38.6257C18.2793 38.0646 11.7826 38.1532 11.5759 38.7143C11.5169 38.921 11.6941 39.0982 11.9894 39.0982C12.3733 39.0982 12.4323 39.1867 12.1961 39.423C11.9894 39.6297 11.635 39.6888 11.3397 39.5706C10.6014 39.2753 11.0444 37.6512 12.137 36.6176C12.9639 35.8793 13.2592 35.7907 14.4699 35.9089C15.2377 35.9975 16.7733 36.4699 17.8954 37.0015C23.5948 39.7183 26.6955 39.7774 30.2096 37.2673C30.7412 36.8834 31.8043 36.3814 32.6311 36.0861C33.9009 35.6431 33.9895 35.584 33.2217 35.5545C32.7493 35.5545 31.2137 36.1156 29.8553 36.7948C27.67 37.8874 27.1385 38.0351 25.4257 38.0351C23.3291 38.0351 22.1478 37.5626 19.372 35.6431C18.5451 35.082 17.5116 34.5505 17.0686 34.4619C16.2122 34.2847 15.6216 33.7827 16.2713 33.7827C16.5075 33.7827 16.5075 33.6646 16.2417 33.3397C16.035 33.1035 15.5035 32.8968 15.031 32.8968C13.9974 32.8968 13.4954 31.7746 14.3223 31.2726C16.478 30.0028 17.1277 29.3236 17.3048 28.1719C17.5116 26.9907 17.5411 26.9611 18.427 27.1679C19.7263 27.4336 19.8149 27.5222 19.6082 28.3195C19.3129 29.5008 19.9035 30.1209 21.7344 30.5048C23.9787 30.9478 24.0083 30.9182 24.4807 30.18C25.4552 28.6444 24.8056 27.4632 23.7129 28.7625C23.1223 29.4122 22.6794 29.5008 21.823 29.0578C21.2915 28.7625 21.2915 28.6739 21.7049 27.8766C22.325 26.6658 22.266 24.835 21.6163 24.2443C21.2915 23.949 20.5532 23.7423 19.8445 23.7423C18.1317 23.7423 18.1908 23.5356 20.7304 21.1141L22.0888 19.8443L23.4176 20.6121C24.4512 21.2322 24.717 21.5275 24.5989 21.9705C24.3921 22.7974 24.9237 22.7088 25.3962 21.8524C25.662 21.3208 26.0754 21.0846 26.8432 21.0255C27.7586 20.9369 27.9063 20.8188 27.9063 20.1987C27.9063 19.2832 27.0499 19.0765 26.223 19.8148C25.662 20.3168 25.6324 20.3168 25.0713 19.6376C24.6579 19.1356 24.5103 18.4859 24.5103 17.1866C24.5103 15.5919 24.5989 15.3262 25.6029 14.1154C26.3412 13.259 26.7841 12.9047 26.9908 13.1114C27.168 13.2886 27.4633 13.4067 27.6996 13.4067C27.9949 13.4067 27.9358 13.1704 27.4928 12.5503C26.9613 11.812 26.9318 11.5758 27.1975 10.7489C27.611 9.62678 27.1385 9.12476 26.1935 9.59724C25.7505 9.86302 25.6915 10.0993 25.8391 11.0738C26.0163 12.1664 25.9868 12.2255 24.9828 12.6979C23.772 13.2886 23.0337 12.9342 23.0337 11.7234C23.0337 11.3395 22.827 10.6013 22.5613 10.0993C22.2955 9.59725 22.1774 8.91805 22.266 8.50462C22.4727 7.67776 23.7425 7.26434 24.5693 7.76636C25.0123 8.03213 25.1599 8.0026 25.2781 7.67776C25.5734 6.88044 25.2485 6.17171 24.4807 6.02406C23.2109 5.75829 22.266 4.81331 22.325 3.77975C22.325 3.27773 22.4431 2.71665 22.5613 2.50994C22.7089 2.30323 22.7089 2.06698 22.6203 1.97839C22.3841 1.74215 21.5572 2.48041 21.5572 2.9529C21.5572 3.72069 21.0847 3.36632 20.819 2.42134C20.4646 1.29919 19.933 1.06295 19.5196 1.86027ZM4.72487 6.37843C4.72487 6.55561 4.34098 6.58514 3.7799 6.46702C2.33291 6.17171 2.21478 5.84688 3.54365 5.965C4.19332 6.02406 4.72487 6.20124 4.72487 6.37843ZM17.5706 35.2297C18.6928 35.7317 19.874 36.7653 19.3129 36.7357C19.1653 36.7062 18.1908 36.2632 17.1277 35.7022C15.1196 34.6391 15.474 34.2552 17.5706 35.2297Z" fill="white"/>
<path d="M66.1776 1.85986C66.0004 2.18469 65.8528 2.65718 65.8528 2.89342C65.8528 3.1592 65.7346 3.36591 65.5574 3.36591C65.4098 3.36591 65.2621 3.18873 65.2621 2.95248C65.2621 2.48 64.4353 1.74174 64.199 1.97798C64.1105 2.06657 64.14 2.33234 64.2581 2.53906C64.4058 2.74577 64.5239 3.30685 64.5239 3.80887C64.5239 4.8129 63.5789 5.78741 62.3386 6.02365C61.7185 6.14177 61.5708 6.34848 61.5708 7.05722C61.5708 7.70689 61.689 7.9136 62.0138 7.82501C63.4017 7.47064 63.7266 7.50017 64.199 7.97266C64.5239 8.26796 64.6715 8.74045 64.5534 9.09482C63.5198 13.111 63.136 13.613 61.8071 12.6089C61.0984 12.1069 60.9802 11.8116 61.0688 10.8076C61.1279 9.86261 61.0393 9.62636 60.5963 9.50824C59.5628 9.24247 59.2084 9.68543 59.6218 10.719C59.9762 11.5163 59.9467 11.723 59.3561 12.5203C58.9131 13.1405 58.8245 13.4063 59.1198 13.4063C59.3561 13.4063 59.6514 13.2881 59.8285 13.111C60.301 12.6385 62.25 15.1781 62.3091 16.3888C62.4272 18.3083 62.3091 18.958 61.748 19.6372C61.1869 20.3164 61.1574 20.3164 60.5963 19.8144C59.8876 19.1647 58.8836 19.2828 58.9426 19.9916C58.9722 20.2573 58.854 20.4936 58.6473 20.4936C57.8795 20.5231 59.297 21.0842 60.1238 21.0842C60.7735 21.0842 61.1279 21.2909 61.4232 21.8224C61.8957 22.7084 62.4568 22.7969 62.2205 21.9701C62.1024 21.5271 62.3682 21.2318 63.4017 20.6117L64.7306 19.8439L66.089 21.1137C68.6286 23.5352 68.7172 23.7419 66.9454 23.7419C64.7011 23.7419 64.3172 24.746 65.144 28.2305C65.2917 28.9393 65.2326 29.0574 64.4944 29.2346C63.8447 29.4118 63.5789 29.3232 63.2541 28.8212C63.0178 28.4668 62.6044 28.1715 62.3091 28.1715C61.6299 28.1715 61.7776 29.5299 62.5453 30.2977C63.0769 30.8292 63.2541 30.8588 64.9373 30.5044C66.9158 30.1205 67.4769 29.5889 67.1521 28.3487C66.9749 27.5513 67.093 27.4332 68.3924 27.1675C69.2783 26.9607 69.3373 26.9903 69.485 28.1124C69.6917 29.3822 70.1347 29.8547 71.936 30.8883C72.9991 31.4789 73.1172 31.6561 72.9105 32.2467C72.7333 32.7192 72.438 32.8964 71.8179 32.8964C71.3454 32.8964 70.7843 33.1031 70.5776 33.3393C70.3118 33.6641 70.3118 33.7823 70.5481 33.7823C71.1387 33.7823 70.6367 34.2843 69.8394 34.491C69.4259 34.6091 68.0971 35.3179 66.8863 36.1447C64.4353 37.7393 62.191 38.389 60.3306 38.0347C59.7104 37.9165 58.1748 37.3259 56.9346 36.7058C55.6648 36.0561 54.2768 35.5541 53.8339 35.5836C53.1251 35.5836 53.1842 35.6427 54.2473 35.9675C54.897 36.2038 55.8715 36.6467 56.344 37.0011C56.846 37.3259 57.9386 37.9461 58.8245 38.3595C61.7185 39.7179 64.3172 39.334 69.6917 36.7648C71.9656 35.6722 73.6783 35.5541 74.8005 36.44C75.5978 37.0601 76.3656 38.891 76.0408 39.3931C75.8045 39.777 74.7119 39.777 74.7119 39.3931C74.7119 39.2159 74.8595 39.0977 75.0072 39.0977C75.1844 39.0977 75.3025 38.891 75.3025 38.6548C75.3025 38.0347 68.4219 38.0347 67.3293 38.6548C66.6501 39.0387 66.9454 39.0682 70.3118 39.0977C73.3535 39.0977 74.0917 39.1863 74.2394 39.5407C74.5052 40.2494 75.834 40.0723 76.3656 39.2454C76.779 38.5957 76.8085 38.3004 76.5132 37.3259C76.2179 36.2924 74.7119 34.6091 73.7964 34.3138C73.5011 34.2252 73.6193 33.8118 74.2099 32.8373C75.2139 31.1245 75.2139 30.5339 74.2394 29.6775C73.7374 29.2346 73.5602 28.8507 73.6783 28.5259C73.7669 28.2601 73.9441 27.4037 74.0327 26.6359L74.2099 25.2184L75.1844 26.1044C76.9562 27.6399 79.7025 27.5809 81.2086 25.9567C81.7697 25.3661 81.9468 24.805 82.0354 23.3285C82.124 22.2063 82.0059 21.2023 81.7992 20.8184C81.3562 19.962 79.5844 19.2238 78.5804 19.46C77.5173 19.7258 76.0703 21.1137 76.5428 21.4385C77.1334 21.7929 77.3106 21.7338 77.4287 21.0251C77.5468 20.2278 78.728 19.7258 79.8207 20.0211C81.5925 20.464 82.065 23.9191 80.5294 25.4252C79.4958 26.4883 77.4877 26.6654 76.4247 25.8386C75.6569 25.2184 73.7964 22.1768 73.4125 20.8479C73.2354 20.2869 73.2944 20.1983 73.9441 20.1983C74.7119 20.1983 76.2179 19.6962 76.4837 19.3714C76.5723 19.2533 77.0153 18.958 77.4877 18.7217C78.4032 18.2493 78.9643 17.3929 78.1374 17.7177C77.0743 18.1311 77.7831 17.511 78.9938 16.9794C80.3227 16.3888 80.8542 15.562 79.7321 15.8573C79.4072 15.9459 79.2005 15.8868 79.3186 15.7392C79.4072 15.5915 79.6435 15.4734 79.8797 15.4734C80.3522 15.4734 82.0945 14.0559 82.0945 13.672C82.0945 13.4949 81.8287 13.5244 81.4448 13.7016C80.8542 13.9673 80.8837 13.9378 81.5039 13.4949C82.5965 12.7271 83.8663 11.4277 83.8663 11.1029C83.8663 10.9257 83.571 10.8666 83.2167 10.9552C82.7146 11.0734 82.8328 10.8962 83.6301 10.3351C85.1657 9.24247 85.9925 7.76595 84.6932 8.41562C84.3093 8.5928 84.6341 8.17937 85.4314 7.50017C86.2288 6.79144 86.8194 6.02365 86.8194 5.66928C86.8194 5.10821 86.7012 5.07867 84.1026 5.28539C80.4113 5.52163 76.6018 6.23036 75.332 6.90956C73.4125 7.88407 72.7924 8.79951 72.7924 10.6895C72.7924 11.9888 72.6743 12.3727 72.3199 12.4613C71.4635 12.6089 71.0796 11.6935 71.0206 9.39012C70.9911 7.29346 70.932 7.14581 69.8984 6.08271C68.9535 5.10821 68.8353 4.8129 68.9239 3.77934C68.983 3.10014 69.1306 2.39141 69.2488 2.18469C69.3964 1.94845 69.3373 1.85986 69.0716 1.94845C68.8353 2.00751 68.54 2.36187 68.3628 2.71624C67.9789 3.60215 67.8018 3.54309 67.4769 2.42094C67.1226 1.29878 66.591 1.06253 66.1776 1.85986ZM84.2797 6.02365C83.8368 6.46661 82.0945 6.73238 82.0945 6.37801C82.0945 6.20083 82.5965 5.99412 83.2167 5.93506C83.8073 5.876 84.3683 5.81694 84.4569 5.78741C84.516 5.75788 84.4569 5.84647 84.2797 6.02365ZM69.8984 35.7017C68.7763 36.2628 67.7427 36.7353 67.595 36.7353C67.093 36.7353 68.8944 35.3769 69.8394 35.0225C71.7588 34.3433 71.7884 34.7272 69.8984 35.7017Z" fill="white"/>
<path d="M48.5749 4.5769C48.1319 6.3192 48.9588 7.50041 50.8782 7.91384C51.7641 8.12055 51.8823 7.79572 51.3507 6.40779C51.1145 5.78765 50.9964 5.69906 50.7896 6.02389C50.5829 6.37826 50.4648 6.37826 50.0218 5.99436C49.7561 5.75812 49.3426 5.19704 49.1359 4.69502L48.7816 3.80911L48.5749 4.5769Z" fill="white"/>
<path d="M37.6497 4.814C37.5611 5.10931 37.2068 5.61132 36.8819 5.90663C36.4095 6.34959 36.2323 6.37912 36.0256 6.05428C35.7893 5.64085 35.7007 5.78851 35.3168 7.56033L35.1396 8.32812L36.498 7.82611C38.0632 7.2355 38.388 6.82207 38.388 5.52273C38.388 4.43011 37.9155 3.98715 37.6497 4.814Z" fill="white"/>
<path d="M40.6332 8.4168C37.1486 9.24365 33.4278 12.1672 31.9218 15.2679C28.0828 23.182 32.9553 32.3955 41.6963 33.7835C45.4467 34.3741 49.2561 33.1338 52.2387 30.3875C56.4025 26.4894 57.5247 20.8786 55.1327 15.6813C52.5635 10.1296 46.4212 7.0584 40.6332 8.4168ZM47.8977 11.1336C55.8119 14.6477 56.4911 25.9284 49.0494 30.2989C42.4937 34.1378 34.5795 30.6532 32.8963 23.182C32.0399 19.3726 33.1916 15.9175 36.3513 12.994C39.452 10.1 43.9702 9.39131 47.8977 11.1336Z" fill="white"/>
<path d="M39.9235 11.2794C36.8228 12.4016 34.0469 15.6204 33.3382 18.9573C32.8952 21.2017 33.1905 23.5346 34.2536 25.6903C35.3167 27.846 36.9409 29.4111 39.2443 30.4742C40.6322 31.1534 41.3114 31.2715 43.5557 31.242C45.9477 31.242 46.3906 31.1534 47.9853 30.3266C50.0524 29.2635 52.0605 27.2259 52.9464 25.2769C53.478 24.1252 53.5961 23.3574 53.5961 20.9359C53.5665 18.3077 53.478 17.8057 52.7692 16.4177C50.9383 12.9331 47.8672 11.0137 43.8806 10.8365C42.0792 10.7479 41.1047 10.866 39.9235 11.2794ZM36.6161 17.5104C36.6161 17.658 36.4094 17.8352 36.1731 17.9533C35.8778 18.0714 35.7302 18.5439 35.7302 19.5184V20.9359L36.9114 19.607C37.6201 18.7506 38.004 18.101 37.9154 17.7466C37.7678 17.3332 37.9449 17.2446 38.949 17.2446C39.6282 17.2446 40.1597 17.3332 40.1597 17.4218C40.1597 17.5399 39.5691 18.1305 38.8309 18.7802C38.0926 19.4298 37.502 20.0795 37.502 20.1976C37.502 20.3453 38.0926 21.2017 38.8309 22.0876C39.5691 23.003 40.1597 23.8003 40.1597 23.8889C40.1597 23.9775 39.6872 24.0366 39.0966 24.0366C38.2402 24.0366 38.0631 23.948 38.2107 23.5641C38.3288 23.2688 38.0926 22.6782 37.6201 22.058C36.8818 21.0835 36.8228 21.054 36.2912 21.556C35.612 22.1466 35.553 23.0916 36.1731 23.3279C37.059 23.6822 36.5865 24.0366 35.2872 24.0366C33.9879 24.0366 33.5154 23.6822 34.4013 23.3279C35.051 23.0916 35.051 18.1896 34.4013 17.9533C34.165 17.8352 34.0469 17.658 34.1355 17.5104C34.3422 17.156 36.6161 17.156 36.6161 17.5104ZM44.8846 17.6875C46.0363 18.2781 46.3611 18.9573 46.3611 20.7882C46.3611 22.0876 46.2135 22.4419 45.5047 23.1802C44.7074 23.948 44.4416 24.0366 42.6993 24.0366C40.8685 24.0366 40.1893 23.7117 41.1933 23.3279C41.5477 23.2097 41.6362 22.6191 41.6362 20.6406C41.6362 18.662 41.5477 18.0714 41.1933 17.9533C40.957 17.8352 40.7503 17.658 40.7503 17.5104C40.7503 17.0674 43.9691 17.215 44.8846 17.6875ZM52.0014 17.5399C52.6806 17.9238 52.7692 19.3117 52.1196 19.3117C51.8833 19.3117 51.6766 19.0459 51.6766 18.7211C51.6766 17.8352 49.5209 17.8647 48.9007 18.7802C48.3692 19.548 48.2806 21.4379 48.7531 22.2943C49.137 23.003 50.2296 23.4755 51.0565 23.2393C51.9128 23.003 51.9424 21.3788 51.086 21.3788C50.7612 21.3788 50.4954 21.2312 50.4954 21.054C50.4954 20.8768 50.9679 20.7882 51.6175 20.8473C52.6216 20.9359 52.7102 21.0245 52.7988 21.9104C52.9464 23.3279 52.2081 24.0366 50.643 24.0366C48.3101 24.0366 46.8927 21.9399 47.5719 19.548C48.0739 17.6285 50.2887 16.654 52.0014 17.5399Z" fill="white"/>
<path d="M42.5234 20.6403V23.1504H43.3503C44.3248 23.1504 44.6792 22.9141 45.1516 22.0578C45.7423 20.8765 45.4174 18.9866 44.4724 18.3665C44.2953 18.2483 43.7932 18.1302 43.3503 18.1302H42.5234V20.6403Z" fill="white"/>
<path d="M26.4557 27.7287C25.9536 29.0871 26.6033 32.6013 27.4006 32.6013C27.5188 32.6013 27.7845 32.7194 28.0208 32.867C28.3751 33.0738 28.257 33.31 27.5188 34.0778C26.3375 35.2295 26.308 35.702 27.4302 35.1409C27.8731 34.9046 29.1134 34.5503 30.1174 34.4026C32.3322 34.0483 33.0705 33.4576 33.0705 32.0992C33.0705 31.2429 32.7752 30.7704 31.4168 29.412C29.8517 27.8173 29.7631 27.7583 29.9403 28.6147C30.0288 29.0871 30.1765 29.7959 30.2946 30.1502C30.4423 30.7408 30.3832 30.8294 29.7335 30.8294C28.7 30.8294 27.5188 29.7368 27.0463 28.3784C26.751 27.522 26.6033 27.3448 26.4557 27.7287ZM31.594 32.4831C31.0329 33.1033 29.9403 32.9852 29.0248 32.1583L28.198 31.42L29.3792 31.8925C30.5013 32.3355 30.5604 32.3355 31.0033 31.7744C31.3577 31.3019 31.4758 31.2724 31.6825 31.6268C31.8302 31.863 31.8007 32.2174 31.594 32.4831Z" fill="white"/>
<path d="M59.6817 28.6146C59.2388 29.8253 58.0871 30.8293 57.083 30.8293C56.4334 30.8293 56.3743 30.7408 56.522 30.0911C57.1126 27.6105 57.1716 27.6105 55.3998 29.4119C54.0414 30.7703 53.7461 31.2428 53.7461 32.0992C53.7461 33.4576 54.4844 34.0482 56.7287 34.4025C57.7622 34.5797 58.973 34.875 59.4455 35.1113C60.479 35.6428 60.4495 35.2294 59.3569 34.1368C58.3528 33.1327 58.2643 32.8965 58.9139 32.8965C59.6522 32.8965 60.5381 31.1246 60.5381 29.6481C60.5381 27.7877 60.1542 27.3447 59.6817 28.6146ZM56.522 32.2173C56.6991 32.1582 57.1716 31.981 57.5851 31.8629C58.3233 31.6267 58.3233 31.6267 57.7622 32.2763C56.7582 33.3985 54.5729 32.8079 55.0454 31.5085C55.2226 31.0951 55.3112 31.0951 55.6951 31.6857C55.9609 32.0401 56.3152 32.2763 56.522 32.2173Z" fill="white"/>
<path d="M7.91851 37.237C8.27287 37.296 8.86348 37.296 9.24738 37.237C9.60174 37.1779 9.30644 37.1188 8.56818 37.1188C7.82992 37.1188 7.53461 37.1779 7.91851 37.237Z" fill="white"/>
<path d="M13.5255 37.237C14.2047 37.296 15.2678 37.296 15.8879 37.237C16.4785 37.1779 15.9175 37.1188 14.6181 37.1188C13.3188 37.1188 12.8168 37.1779 13.5255 37.237Z" fill="white"/>
<path d="M24.1586 37.237C24.8378 37.296 25.96 37.296 26.6687 37.237C27.3479 37.1779 26.7869 37.1188 25.3989 37.1188C24.011 37.1188 23.4499 37.1779 24.1586 37.237Z" fill="white"/>
<path d="M37.5943 37.237C40.7836 37.296 46.04 37.296 49.2589 37.237C52.4481 37.2074 49.8199 37.1779 43.4118 37.1779C37.0037 37.1779 34.3755 37.2074 37.5943 37.237Z" fill="white"/>
<path d="M60.1801 37.237C60.8593 37.296 61.9815 37.296 62.6902 37.237C63.3694 37.1779 62.8083 37.1188 61.4204 37.1188C60.0325 37.1188 59.4714 37.1779 60.1801 37.237Z" fill="white"/>
<path d="M71.2577 37.237C71.8483 37.296 72.8524 37.296 73.4725 37.237C74.0631 37.1779 73.5611 37.1188 72.3503 37.1188C71.1396 37.1188 70.6376 37.1779 71.2577 37.237Z" fill="white"/>
<path d="M77.7545 37.237C78.1974 37.296 78.8471 37.296 79.231 37.237C79.5854 37.1779 79.231 37.1188 78.4041 37.1188C77.6068 37.1188 77.282 37.1779 77.7545 37.237Z" fill="white"/>
<path d="M7.38379 38.6547C7.38379 38.9795 7.70862 39.0977 8.56501 39.0977C9.42139 39.0977 9.74622 38.9795 9.74622 38.6547C9.74622 38.3299 9.42139 38.2117 8.56501 38.2117C7.70862 38.2117 7.38379 38.3299 7.38379 38.6547Z" fill="white"/>
<path d="M29.5331 38.6549C28.8835 39.0388 30.5962 39.0684 43.4125 39.0684C56.2287 39.0684 57.9414 39.0388 57.2918 38.6549C56.6716 38.3006 54.2501 38.2415 43.4125 38.2415C32.5748 38.2415 30.1533 38.3006 29.5331 38.6549Z" fill="white"/>
<path d="M77.2822 38.4185C76.8097 38.8909 77.1641 39.0977 78.4043 39.0977C79.3789 39.0977 79.7332 38.9795 79.7332 38.6547C79.7332 38.3299 79.4084 38.2117 78.6111 38.2117C77.9909 38.2117 77.3708 38.3003 77.2822 38.4185Z" fill="white"/>
</svg>
